<svg width="512" height="512" viewBox="0 0 512 512" xmlns="http://www.w3.org/2000/svg">
  <defs>
    <radialGradient id="glow" cx="50%" cy="46%" r="65%">
      <stop offset="0%" stop-color="#2f6b4a" />
      <stop offset="45%" stop-color="#173c29" />
      <stop offset="100%" stop-color="#081712" />
    </radialGradient>
    <linearGradient id="finGrad" x1="0%" y1="0%" x2="100%" y2="100%">
      <stop offset="0%" stop-color="#e6e8ec" />
      <stop offset="100%" stop-color="#9ba1ad" />
    </linearGradient>
  </defs>

  <rect width="512" height="512" fill="url(#glow)" />

  <polygon
    points="426,256 341,403.2 171,403.2 86,256 171,108.8 341,108.8"
    fill="none"
    stroke="#8b9099"
    stroke-width="6"
    opacity="0.55"
  />

  <path
    d="M 182 344
       C 186 292 204 232 234 178
       C 248 152 262 136 276 132
       C 268 172 262 220 268 268
       C 272 300 284 322 306 338
       C 264 352 218 352 182 344 Z"
    fill="url(#finGrad)"
  />
  <path
    d="M 234 178 C 248 152 262 136 276 132 C 270 164 265 202 267 240 Z"
    fill="#ffffff"
    opacity="0.18"
  />
</svg>
